# xmcd
#
# Track frame offsets:
#	150
#	25457
#	46092
#	71920
#	90761
#	95262
#	114775
#	128494
#	145848
#	170314
#	197175
#	217510
#	237335
#	256535
#	289690
#
# Disc length: 4151 seconds
#
# Revision: 0
# Processed by: cddbd v1.5.2PL0 Copyright (c) Steve Scherf et al.
# Submitted via: audiograbber 1.83.01
#
DISCID=ba10350f
DTITLE=Bob Dylan - The Bootleg Series Vol. 13 1979-1981 Deluxe Edition: Trouble
DTITLE=No More [CD 4) - Rare And Unreleased
DYEAR=2017
DGENRE=Rock
TTITLE0=Slow Train [rehearsal with horns - Oct. 2, 1979]
TTITLE1=Gotta Serve Somebody [rehearsal with horns - Oct. 9, 1979]
TTITLE2=Making A Liar Out Of Me [rehearsal - Sept. 26, 1980]
TTITLE3=Yonder Comes Sin [rehearsal - Oct. 1, 1980]
TTITLE4=Radio Spot for January 1980, Portland, OR show
TTITLE5=Cover Down, Pray Through [live - Buffalo, NY - May 1, 1980]
TTITLE6=Rise Again [rehearsal - Oct. 16, 1980]
TTITLE7=Ain't Gonna Go To Hell For Anybody [live - Salem, OR - Dec. 2, 1980]
TTITLE8=The Groom's Still Waiting At The Altar [take 2 - Shot Of Love studio ou
TTITLE8=take - May 1, 1981]
TTITLE9=Caribbean Wind [rehearsal with pedal steel - Sept. 23, 1980]
TTITLE10=You Changed My Life [take 4 - Shot Of Love studio outake - April 23, 1
TTITLE10=981]
TTITLE11=Shot Of Love [Shot Of Love studio outake - March 25, 1981]
TTITLE12=Watered-Down Love [Shot Of Love studio outake - May 15, 1981]
TTITLE13=Dead Man, Dead Man [Shot Of Love studio outake - April 24, 1981]
TTITLE14=Every Grain Of Sand [rehearsal - Sept. 26, 1980]
EXTD=
EXTT0=
EXTT1=
EXTT2=
EXTT3=
EXTT4=
EXTT5=
EXTT6=
EXTT7=
EXTT8=
EXTT9=
EXTT10=
EXTT11=
EXTT12=
EXTT13=
EXTT14=
PLAYORDER=
